HIERARCHY
ROOT SpineBase
{
  OFFSET 0.000000 0.000000 0.000000
  CHANNELS 6 Xposition Yposition Zposition Zrotation Xrotation Yrotation
  JOINT SpineMid
  {
    OFFSET 0.000000 31.314974 0.000000
    CHANNELS 3 Zrotation Xrotation Yrotation
    JOINT SpineShoulder
    {
      OFFSET 0.093259 23.254348 -0.806516
      CHANNELS 3 Zrotation Xrotation Yrotation
      JOINT Neck
      {
        OFFSET 0.058730 7.695558 -0.591608
        CHANNELS 3 Zrotation Xrotation Yrotation
        JOINT Head
        {
          OFFSET 4.598644 13.248070 3.775169
          CHANNELS 3 Zrotation Xrotation Yrotation
          End Site
          {
            OFFSET 0 0 0
          }
        }
      }
      JOINT ShoulderLeft
      {
        OFFSET -11.927057 -2.807829 -10.640826
        CHANNELS 3 Zrotation Xrotation Yrotation
        JOINT ElbowLeft
        {
          OFFSET -6.078609 -25.337184 -6.585676
          CHANNELS 3 Zrotation Xrotation Yrotation
          JOINT WristLeft
          {
            OFFSET -0.245761 -21.278081 -5.555526
            CHANNELS 3 Zrotation Xrotation Yrotation
            JOINT HandLeft
            {
              OFFSET -0.277218 -7.971907 -1.373800
              CHANNELS 3 Zrotation Xrotation Yrotation
              JOINT HandTipLeft
              {
                OFFSET 0.379570 -8.454047 0.100042
                CHANNELS 3 Zrotation Xrotation Yrotation
                End Site
                {
                  OFFSET 0 0 0
                }
              }
              JOINT ThumbLeft
              {
                OFFSET -3.174579 3.299315 -1.843219
                CHANNELS 3 Zrotation Xrotation Yrotation
                End Site
                {
                  OFFSET 0 0 0
                }
              }
            }
          }
        }
      }
      JOINT ShoulderRight
      {
        OFFSET 12.713788 -3.786171 11.897733
        CHANNELS 3 Zrotation Xrotation Yrotation
        JOINT ElbowRight
        {
          OFFSET 2.639232 -26.421218 6.488317
          CHANNELS 3 Zrotation Xrotation Yrotation
          JOINT WristRight
          {
            OFFSET 1.840922 -24.957990 -0.196825
            CHANNELS 3 Zrotation Xrotation Yrotation
            JOINT HandRight
            {
              OFFSET 2.207317 -9.003685 2.968260
              CHANNELS 3 Zrotation Xrotation Yrotation
              JOINT HandTipRight
              {
                OFFSET -0.310804 -7.002761 -0.107584
                CHANNELS 3 Zrotation Xrotation Yrotation
                End Site
                {
                  OFFSET 0 0 0
                }
              }
              JOINT ThumbRight
              {
                OFFSET -3.491212 -2.386705 0.305419
                CHANNELS 3 Zrotation Xrotation Yrotation
                End Site
                {
                  OFFSET 0 0 0
                }
              }
            }
          }
        }
      }
    }
  }
  JOINT HipLeft
  {
    OFFSET -4.867284 1.653266 -7.526416
    CHANNELS 3 Zrotation Xrotation Yrotation
    JOINT KneeLeft
    {
      OFFSET -11.549198 -36.910414 -2.886955
      CHANNELS 3 Zrotation Xrotation Yrotation
      JOINT AnkleLeft
      {
        OFFSET -9.114495 -38.034497 4.904711
        CHANNELS 3 Zrotation Xrotation Yrotation
        JOINT FootLeft
        {
          OFFSET 0.745342 -7.821433 -6.870954
          CHANNELS 3 Zrotation Xrotation Yrotation
          End Site
          {
            OFFSET 0 0 0
          }
        }
      }
    }
  }
  JOINT HipRight
  {
    OFFSET 5.465787 0.122425 0.529537
    CHANNELS 3 Zrotation Xrotation Yrotation
    JOINT KneeRight
    {
      OFFSET -5.760509 -39.241514 3.632225
      CHANNELS 3 Zrotation Xrotation Yrotation
      JOINT AnkleRight
      {
        OFFSET -7.264433 -35.279094 7.055639
        CHANNELS 3 Zrotation Xrotation Yrotation
        JOINT FootRight
        {
          OFFSET 5.646097 -5.365665 -9.234548
          CHANNELS 3 Zrotation Xrotation Yrotation
          End Site
          {
            OFFSET 0 0 0
          }
        }
      }
    }
  }
}
MOTION
Frames: 13
Frame Time: 0.033333
-33.287975 84.867917 342.979303 0.180535 -0.102794 -44.227681 -0.201066 -0.052266 44.227751 -0.512769 -0.937612 -0.036436 -2.029826 0.817917 0.826730 0.000000 0.000000 0.000000 -32.682927 17.061974 9.349361 -14.521339 10.541072 9.945601 -8.846832 -6.069893 -8.718532 4.474254 14.953567 -0.123407 0.000000 0.000000 0.000000 0.000000 0.000000 0.000000 20.568251 -18.718985 5.853102 2.510072 -17.985686 -2.758060 -13.379215 -0.417082 1.324150 16.444510 -5.351586 3.666274 0.000000 0.000000 0.000000 0.000000 0.000000 0.000000 2.168614 2.245696 43.923377 -1.817860 0.261134 0.383888 -3.251707 -2.448490 1.189700 0.000000 0.000000 0.000000 1.277966 4.749142 44.221419 -3.204495 -2.386531 0.140889 -13.423412 -18.076782 -0.553738 0.000000 0.000000 0.000000
-33.155700 84.700019 342.793117 -0.540238 -1.034305 -41.790731 0.037491 -0.715786 41.759601 -0.232390 -0.204625 -0.051150 -1.948115 1.617154 1.110311 0.000000 0.000000 0.000000 -34.484832 6.637041 10.253066 -21.005159 6.046017 9.290542 -9.113375 -8.470067 -10.765468 6.378491 13.161674 -4.532862 0.000000 0.000000 0.000000 0.000000 0.000000 0.000000 15.596084 -21.793721 3.570623 -7.398501 -17.768364 -1.598832 -12.500219 3.926872 -2.779858 17.470102 -6.989928 7.844636 0.000000 0.000000 0.000000 0.000000 0.000000 0.000000 2.042233 3.307114 41.423798 -1.708694 0.048234 0.432408 -2.914791 -1.857154 0.923145 0.000000 0.000000 0.000000 1.429930 5.105711 41.791449 -2.745242 -1.838457 0.120492 -8.499318 -10.066450 1.312998 0.000000 0.000000 0.000000
-33.036273 84.566816 342.610400 -1.126311 -1.902349 -39.180587 -0.007698 -0.625280 39.120411 -0.160911 -0.168612 -0.065873 -2.615531 2.756524 1.405856 0.000000 0.000000 0.000000 -35.277717 -3.893666 10.421837 -24.685682 1.820105 8.240162 -6.912171 -10.339739 -12.286686 8.243092 15.867980 -6.171855 0.000000 0.000000 0.000000 0.000000 0.000000 0.000000 11.628121 -23.424640 1.643772 -14.602954 -16.536406 -0.203742 -11.012574 8.866152 -4.700959 19.446088 -10.654821 10.029699 0.000000 0.000000 0.000000 0.000000 0.000000 0.000000 1.983882 4.344140 38.718773 -1.691764 -0.228329 0.506055 -2.548535 -1.424060 0.623119 0.000000 0.000000 0.000000 1.566515 5.388144 39.176872 -2.342049 -1.372229 0.101548 -6.625391 -6.379902 2.385163 0.000000 0.000000 0.000000
-32.925840 84.474779 342.446517 -1.585282 -2.510107 -36.618203 -0.045786 -0.446546 36.531325 -0.094122 -0.114433 -0.075153 -3.565111 3.059390 1.879792 0.000000 0.000000 0.000000 -36.113061 -13.650136 10.216308 -24.539559 -0.174145 7.114030 -3.906194 -10.922294 -12.985765 7.244847 15.984581 -7.745994 0.000000 0.000000 0.000000 0.000000 0.000000 0.000000 10.387093 -24.265317 0.933643 -18.571103 -15.932303 0.703146 -12.486007 13.310424 -4.095008 22.298266 -16.174722 11.107237 0.000000 0.000000 0.000000 0.000000 0.000000 0.000000 2.036133 5.196042 36.036818 -1.666638 -0.632600 0.623008 -2.231989 -1.114471 0.312749 0.000000 0.000000 0.000000 1.741010 5.498359 36.602445 -1.963949 -1.105991 0.112300 -7.264588 -6.392904 3.490306 0.000000 0.000000 0.000000
-32.835173 84.407829 342.320443 -1.927980 -2.851845 -34.233351 -0.119980 -0.298792 34.124793 -0.093791 -0.072196 -0.086958 -4.093980 2.779182 2.304028 0.000000 0.000000 0.000000 -36.115465 -21.713605 9.723306 -22.296279 -0.531421 5.702492 -4.392865 -9.367685 -11.106113 7.425625 16.167659 -8.788627 0.000000 0.000000 0.000000 0.000000 0.000000 0.000000 11.507707 -23.885735 1.262989 -21.702772 -16.461413 0.827320 -10.998849 17.146004 -3.175520 22.027535 -19.000093 11.093718 0.000000 0.000000 0.000000 0.000000 0.000000 0.000000 2.109721 5.886857 33.502171 -1.572743 -1.234714 0.805821 -1.956745 -0.934163 -0.044812 0.000000 0.000000 0.000000 1.945836 5.484901 34.201739 -1.654321 -1.001944 0.139002 -4.610192 -2.250516 3.070264 0.000000 0.000000 0.000000
-32.757185 84.362766 342.240789 -2.078733 -2.928610 -32.225691 -0.154157 -0.127801 32.109952 -0.068757 -0.016027 -0.088793 -5.042053 1.978718 2.808228 0.000000 0.000000 0.000000 -35.422317 -24.978912 9.341583 -20.614434 0.609020 5.345585 -5.561689 -7.307403 -8.585688 7.541304 16.916419 -8.293592 0.000000 0.000000 0.000000 0.000000 0.000000 0.000000 12.964595 -22.867300 1.873614 -24.388775 -18.944873 0.158738 -5.795947 20.792241 -3.123012 21.749599 -21.979873 10.500294 0.000000 0.000000 0.000000 0.000000 0.000000 0.000000 2.124745 6.303466 31.353561 -1.412963 -1.924090 1.019631 -2.018816 -0.457107 -0.119659 0.000000 0.000000 0.000000 2.036980 5.330472 32.179499 -1.336612 -1.081144 0.198066 -5.281337 -2.875761 3.324196 0.000000 0.000000 0.000000
-32.739492 84.340666 342.224278 -2.185273 -2.878520 -30.827884 -0.225621 -0.093302 30.706871 -0.087626 -0.008963 -0.096469 -5.201722 1.481427 3.014550 0.000000 0.000000 0.000000 -34.413171 -24.961126 9.238996 -19.396850 4.176271 6.702757 -6.458392 -6.485501 -7.571335 9.463475 15.992024 -8.684603 0.000000 0.000000 0.000000 0.000000 0.000000 0.000000 13.065336 -23.264922 1.873929 -24.031930 -18.823793 0.237829 -5.315952 18.685962 -4.097091 21.322538 -21.589510 10.690999 0.000000 0.000000 0.000000 0.000000 0.000000 0.000000 2.149953 6.620062 29.823843 -1.239488 -2.542821 1.224471 -2.400839 -0.056010 0.069153 0.000000 0.000000 0.000000 2.137415 5.288836 30.759603 -1.157853 -1.365357 0.277793 -7.708499 -6.093683 3.838439 0.000000 0.000000 0.000000
-32.740555 84.341119 342.243762 -2.258982 -2.709244 -29.966876 -0.299787 0.028591 29.846168 -0.084815 0.036541 -0.100294 -5.151645 0.631208 3.130499 0.000000 0.000000 0.000000 -34.120903 -19.458949 9.398295 -18.465572 6.334793 7.615843 -4.487305 -6.052618 -7.946049 7.322818 16.562485 -5.963444 0.000000 0.000000 0.000000 0.000000 0.000000 0.000000 12.098871 -24.646370 1.498419 -21.450824 -19.354553 0.257703 -6.845080 17.360440 -4.160290 21.069031 -19.382116 10.826828 0.000000 0.000000 0.000000 0.000000 0.000000 0.000000 2.135090 6.805634 28.851618 -1.010160 -3.127609 1.423566 -2.737319 0.519181 0.224154 0.000000 0.000000 0.000000 2.212765 5.268578 29.872766 -0.993674 -1.740692 0.373986 -12.223960 -13.076363 3.332818 0.000000 0.000000 0.000000
-32.853771 84.341658 342.342684 -2.161249 -2.345205 -30.151043 -0.337387 0.176683 30.043735 -0.063398 0.078517 -0.094903 -4.910270 0.058674 2.953536 0.000000 0.000000 0.000000 -32.540860 -10.427347 9.363501 -18.179592 9.698689 9.435782 -4.445781 -7.309122 -8.721165 6.192736 16.188087 -3.952289 0.000000 0.000000 0.000000 0.000000 0.000000 0.000000 11.786786 -24.967927 1.527316 -17.388932 -20.313340 -0.270993 -4.594661 16.623001 -4.264473 17.784184 -17.558257 10.136590 0.000000 0.000000 0.000000 0.000000 0.000000 0.000000 2.015864 6.735606 28.961542 -0.821232 -3.608142 1.596691 -2.920929 0.910571 0.234905 0.000000 0.000000 0.000000 2.262012 5.300167 30.036867 -1.101444 -2.221321 0.450947 -19.926745 -24.431908 0.955778 0.000000 0.000000 0.000000
-33.003221 84.292345 342.483759 -1.908584 -1.806125 -30.526686 -0.357222 0.321861 30.441759 -0.042456 0.110098 -0.083203 -4.797684 -0.493638 2.695084 0.000000 0.000000 0.000000 -32.641100 -0.438260 9.397399 -12.906014 11.434930 8.624940 -4.605702 -4.800645 -6.826386 5.886708 13.799311 -2.589896 0.000000 0.000000 0.000000 0.000000 0.000000 0.000000 11.622764 -24.517709 1.725340 -9.780886 -20.569106 -0.995556 1.116108 16.647883 -3.933013 9.520465 -17.368892 8.462680 0.000000 0.000000 0.000000 0.000000 0.000000 0.000000 1.862018 6.372449 29.297995 -0.655853 -3.969478 1.730384 -3.233785 1.250179 0.398706 0.000000 0.000000 0.000000 2.261397 5.031257 30.415841 -1.096346 -2.552944 0.523378 -24.073957 -29.667846 -1.240099 0.000000 0.000000 0.000000
-33.201999 84.075801 342.607626 -1.553167 -1.039227 -31.143341 -0.346573 0.422573 31.084005 -0.030262 0.111325 -0.068415 -4.782028 -1.129037 2.402801 0.000000 0.000000 0.000000 -31.637536 12.363822 9.036867 -8.353365 9.717319 7.849997 -8.125353 -3.178176 -6.037808 10.102940 14.951001 0.402194 0.000000 0.000000 0.000000 0.000000 0.000000 0.000000 12.058513 -23.219193 2.255102 1.442815 -20.459109 -1.734044 4.152942 13.579328 -2.249233 1.727832 -13.531145 5.820524 0.000000 0.000000 0.000000 0.000000 0.000000 0.000000 1.642075 5.657782 29.913819 -0.364478 -4.186930 1.820154 -3.411559 1.385505 0.435694 0.000000 0.000000 0.000000 2.417314 4.427982 31.069349 -1.143709 -2.635221 0.550029 -24.667858 -30.321143 -2.115178 0.000000 0.000000 0.000000
-33.591225 84.335435 342.895203 -1.252255 -0.266337 -32.923716 -0.312626 0.456046 32.883036 -0.047039 0.120298 -0.057773 -4.529090 -1.705625 2.087181 0.000000 0.000000 0.000000 -28.193018 25.123028 7.428111 -3.549015 8.964203 8.370171 -7.030463 -4.637631 -5.894419 11.311575 18.988269 4.555679 0.000000 0.000000 0.000000 0.000000 0.000000 0.000000 13.549395 -19.368970 3.176527 15.410260 -18.783917 -2.146452 7.309395 14.227503 1.732385 -8.306165 -13.662973 0.838123 0.000000 0.000000 0.000000 0.000000 0.000000 0.000000 1.699956 5.096162 31.667626 -0.384968 -4.283571 1.891526 -3.525340 1.637261 0.431245 0.000000 0.000000 0.000000 2.711066 4.437733 32.855360 -1.584338 -3.093944 0.595045 -21.446812 -26.139379 -0.869831 0.000000 0.000000 0.000000
-34.087094 84.708649 343.329698 -0.957191 0.372190 -35.503217 -0.262138 0.447461 35.476658 -0.001213 0.103260 -0.041746 -3.632063 -1.404793 1.410760 0.000000 0.000000 0.000000 -19.480930 36.336582 2.458554 1.984972 9.302934 9.503944 -6.871180 -5.035760 -4.632009 10.522501 19.522514 6.962759 0.000000 0.000000 0.000000 0.000000 0.000000 0.000000 17.109892 -15.666814 4.762621 25.982229 -9.729619 -4.480860 6.107425 17.366266 7.330861 -12.789932 -17.180000 -6.683819 0.000000 0.000000 0.000000 0.000000 0.000000 0.000000 1.815007 4.792002 34.192769 -0.617592 -4.328018 1.954403 -3.515063 1.633842 0.325084 0.000000 0.000000 0.000000 2.847856 4.952686 35.407504 -2.224827 -3.796890 0.643448 -24.811940 -29.992056 -1.696866 0.000000 0.000000 0.000000
